<svg width="6" height="10" viewBox="0 0 6 10" fill="none" 
  xmlns="http://www.w3.org/2000/svg">
  <path d="M2.5815e-07 5.00298C0.00157144 4.90953 0.0363019 4.82023 0.097131 4.75323L4.44861 0.105116C4.47767 0.0719333 4.51278 0.045486 4.55176 0.0274068C4.59074 0.00932752 4.63277 -1.60521e-08 4.67525 -1.41954e-08C4.71772 -1.23387e-08 4.75975 0.00932752 4.79873 0.0274068C4.83771 0.045486 4.87282 0.0719333 4.90189 0.105116C4.93286 0.136258 4.95754 0.173872 4.97442 0.215634C4.99129 0.257396 5 0.30242 5 0.347928C5 0.393435 4.99129 0.43846 4.97442 0.480222C4.95754 0.521984 4.93286 0.559597 4.90189 0.59074L0.783524 5.00298L4.90189 9.40828C4.93223 9.44053 4.95632 9.47889 4.97276 9.52116C4.98919 9.56343 4.99766 9.60877 4.99766 9.65456C4.99766 9.70035 4.98919 9.74569 4.97276 9.78796C4.95632 9.83023 4.93223 9.8686 4.90189 9.90084C4.84136 9.9644 4.75999 10 4.67525 10C4.5905 10 4.50913 9.9644 4.44861 9.90084L0.097131 5.24579C0.0367072 5.18132 0.00190188 5.09432 2.5815e-07 5.00298Z" fill="#ffffff"/>
</svg>
